<?xml version="1.0" encoding="UTF-8"?>
<svg width="486px" height="2px" viewBox="0 0 486 2" version="1.1" xmlns="http://www.w3.org/2000/svg" xmlns:xlink="http://www.w3.org/1999/xlink">
    <!-- Generator: Sketch 41.1 (35376) - http://www.bohemiancoding.com/sketch -->
    <title>Line</title>
    <desc>Created with Sketch.</desc>
    <defs></defs>
    <g id="Home" stroke="none" stroke-width="1" fill="none" fill-rule="evenodd">
        <g id="Home-serif" transform="translate(-471.000000, -1102.000000)" fill="#D1D1D1">
            <g id="SUMMARY" transform="translate(132.000000, 999.000000)">
                <path d="M340.663102,105 L341.663102,105 C342.215386,105 342.663102,104.552285 342.663102,104 C342.663102,103.447715 342.215386,103 341.663102,103 L340.663102,103 C340.110817,103 339.663102,103.447715 339.663102,104 C339.663102,104.552285 340.110817,105 340.663102,105 Z M349.663102,105 L350.663102,105 C351.215386,105 351.663102,104.552285 351.663102,104 C351.663102,103.447715 351.215386,103 350.663102,103 L349.663102,103 C349.110817,103 348.663102,103.447715 348.663102,104 C348.663102,104.552285 349.110817,105 349.663102,105 Z M358.663102,105 L359.663102,105 C360.215386,105 360.663102,104.552285 360.663102,104 C360.663102,103.447715 360.215386,103 359.663102,103 L358.663102,103 C358.110817,103 357.663102,103.447715 357.663102,104 C357.663102,104.552285 358.110817,105 358.663102,105 Z M367.663102,105 L368.663102,105 C369.215386,105 369.663102,104.552285 369.663102,104 C369.663102,103.447715 369.215386,103 368.663102,103 L367.663102,103 C367.110817,103 366.663102,103.447715 366.663102,104 C366.663102,104.552285 367.110817,105 367.663102,105 Z M376.663102,105 L377.663102,105 C378.215386,105 378.663102,104.552285 378.663102,104 C378.663102,103.447715 378.215386,103 377.663102,103 L376.663102,103 C376.110817,103 375.663102,103.447715 375.663102,104 C375.663102,104.552285 376.110817,105 376.663102,105 Z M385.663102,105 L386.663102,105 C387.215386,105 387.663102,104.552285 387.663102,104 C387.663102,103.447715 387.215386,103 386.663102,103 L385.663102,103 C385.110817,103 384.663102,103.447715 384.663102,104 C384.663102,104.552285 385.110817,105 385.663102,105 Z M394.663102,105 L395.663102,105 C396.215386,105 396.663102,104.552285 396.663102,104 C396.663102,103.447715 396.215386,103 395.663102,103 L394.663102,103 C394.110817,103 393.663102,103.447715 393.663102,104 C393.663102,104.552285 394.110817,105 394.663102,105 Z M403.663102,105 L404.663102,105 C405.215386,105 405.663102,104.552285 405.663102,104 C405.663102,103.447715 405.215386,103 404.663102,103 L403.663102,103 C403.110817,103 402.663102,103.447715 402.663102,104 C402.663102,104.552285 403.110817,105 403.663102,105 Z M412.663102,105 L413.663102,105 C414.215386,105 414.663102,104.552285 414.663102,104 C414.663102,103.447715 414.215386,103 413.663102,103 L412.663102,103 C412.110817,103 411.663102,103.447715 411.663102,104 C411.663102,104.552285 412.110817,105 412.663102,105 Z M421.663102,105 L422.663102,105 C423.215386,105 423.663102,104.552285 423.663102,104 C423.663102,103.447715 423.215386,103 422.663102,103 L421.663102,103 C421.110817,103 420.663102,103.447715 420.663102,104 C420.663102,104.552285 421.110817,105 421.663102,105 Z M430.663102,105 L431.663102,105 C432.215386,105 432.663102,104.552285 432.663102,104 C432.663102,103.447715 432.215386,103 431.663102,103 L430.663102,103 C430.110817,103 429.663102,103.447715 429.663102,104 C429.663102,104.552285 430.110817,105 430.663102,105 Z M439.663102,105 L440.663102,105 C441.215386,105 441.663102,104.552285 441.663102,104 C441.663102,103.447715 441.215386,103 440.663102,103 L439.663102,103 C439.110817,103 438.663102,103.447715 438.663102,104 C438.663102,104.552285 439.110817,105 439.663102,105 Z M448.663102,105 L449.663102,105 C450.215386,105 450.663102,104.552285 450.663102,104 C450.663102,103.447715 450.215386,103 449.663102,103 L448.663102,103 C448.110817,103 447.663102,103.447715 447.663102,104 C447.663102,104.552285 448.110817,105 448.663102,105 Z M457.663102,105 L458.663102,105 C459.215386,105 459.663102,104.552285 459.663102,104 C459.663102,103.447715 459.215386,103 458.663102,103 L457.663102,103 C457.110817,103 456.663102,103.447715 456.663102,104 C456.663102,104.552285 457.110817,105 457.663102,105 Z M466.663102,105 L467.663102,105 C468.215386,105 468.663102,104.552285 468.663102,104 C468.663102,103.447715 468.215386,103 467.663102,103 L466.663102,103 C466.110817,103 465.663102,103.447715 465.663102,104 C465.663102,104.552285 466.110817,105 466.663102,105 Z M475.663102,105 L476.663102,105 C477.215386,105 477.663102,104.552285 477.663102,104 C477.663102,103.447715 477.215386,103 476.663102,103 L475.663102,103 C475.110817,103 474.663102,103.447715 474.663102,104 C474.663102,104.552285 475.110817,105 475.663102,105 Z M484.663102,105 L485.663102,105 C486.215386,105 486.663102,104.552285 486.663102,104 C486.663102,103.447715 486.215386,103 485.663102,103 L484.663102,103 C484.110817,103 483.663102,103.447715 483.663102,104 C483.663102,104.552285 484.110817,105 484.663102,105 Z M493.663102,105 L494.663102,105 C495.215386,105 495.663102,104.552285 495.663102,104 C495.663102,103.447715 495.215386,103 494.663102,103 L493.663102,103 C493.110817,103 492.663102,103.447715 492.663102,104 C492.663102,104.552285 493.110817,105 493.663102,105 Z M502.663102,105 L503.663102,105 C504.215386,105 504.663102,104.552285 504.663102,104 C504.663102,103.447715 504.215386,103 503.663102,103 L502.663102,103 C502.110817,103 501.663102,103.447715 501.663102,104 C501.663102,104.552285 502.110817,105 502.663102,105 Z M511.663102,105 L512.663102,105 C513.215386,105 513.663102,104.552285 513.663102,104 C513.663102,103.447715 513.215386,103 512.663102,103 L511.663102,103 C511.110817,103 510.663102,103.447715 510.663102,104 C510.663102,104.552285 511.110817,105 511.663102,105 Z M520.663102,105 L521.663102,105 C522.215386,105 522.663102,104.552285 522.663102,104 C522.663102,103.447715 522.215386,103 521.663102,103 L520.663102,103 C520.110817,103 519.663102,103.447715 519.663102,104 C519.663102,104.552285 520.110817,105 520.663102,105 Z M529.663102,105 L530.663102,105 C531.215386,105 531.663102,104.552285 531.663102,104 C531.663102,103.447715 531.215386,103 530.663102,103 L529.663102,103 C529.110817,103 528.663102,103.447715 528.663102,104 C528.663102,104.552285 529.110817,105 529.663102,105 Z M538.663102,105 L539.663102,105 C540.215386,105 540.663102,104.552285 540.663102,104 C540.663102,103.447715 540.215386,103 539.663102,103 L538.663102,103 C538.110817,103 537.663102,103.447715 537.663102,104 C537.663102,104.552285 538.110817,105 538.663102,105 Z M547.663102,105 L548.663102,105 C549.215386,105 549.663102,104.552285 549.663102,104 C549.663102,103.447715 549.215386,103 548.663102,103 L547.663102,103 C547.110817,103 546.663102,103.447715 546.663102,104 C546.663102,104.552285 547.110817,105 547.663102,105 Z M556.663102,105 L557.663102,105 C558.215386,105 558.663102,104.552285 558.663102,104 C558.663102,103.447715 558.215386,103 557.663102,103 L556.663102,103 C556.110817,103 555.663102,103.447715 555.663102,104 C555.663102,104.552285 556.110817,105 556.663102,105 Z M565.663102,105 L566.663102,105 C567.215386,105 567.663102,104.552285 567.663102,104 C567.663102,103.447715 567.215386,103 566.663102,103 L565.663102,103 C565.110817,103 564.663102,103.447715 564.663102,104 C564.663102,104.552285 565.110817,105 565.663102,105 Z M574.663102,105 L575.663102,105 C576.215386,105 576.663102,104.552285 576.663102,104 C576.663102,103.447715 576.215386,103 575.663102,103 L574.663102,103 C574.110817,103 573.663102,103.447715 573.663102,104 C573.663102,104.552285 574.110817,105 574.663102,105 Z M583.663102,105 L584.663102,105 C585.215386,105 585.663102,104.552285 585.663102,104 C585.663102,103.447715 585.215386,103 584.663102,103 L583.663102,103 C583.110817,103 582.663102,103.447715 582.663102,104 C582.663102,104.552285 583.110817,105 583.663102,105 Z M592.663102,105 L593.663102,105 C594.215386,105 594.663102,104.552285 594.663102,104 C594.663102,103.447715 594.215386,103 593.663102,103 L592.663102,103 C592.110817,103 591.663102,103.447715 591.663102,104 C591.663102,104.552285 592.110817,105 592.663102,105 Z M601.663102,105 L602.663102,105 C603.215386,105 603.663102,104.552285 603.663102,104 C603.663102,103.447715 603.215386,103 602.663102,103 L601.663102,103 C601.110817,103 600.663102,103.447715 600.663102,104 C600.663102,104.552285 601.110817,105 601.663102,105 Z M610.663102,105 L611.663102,105 C612.215386,105 612.663102,104.552285 612.663102,104 C612.663102,103.447715 612.215386,103 611.663102,103 L610.663102,103 C610.110817,103 609.663102,103.447715 609.663102,104 C609.663102,104.552285 610.110817,105 610.663102,105 Z M619.663102,105 L620.663102,105 C621.215386,105 621.663102,104.552285 621.663102,104 C621.663102,103.447715 621.215386,103 620.663102,103 L619.663102,103 C619.110817,103 618.663102,103.447715 618.663102,104 C618.663102,104.552285 619.110817,105 619.663102,105 Z M628.663102,105 L629.663102,105 C630.215386,105 630.663102,104.552285 630.663102,104 C630.663102,103.447715 630.215386,103 629.663102,103 L628.663102,103 C628.110817,103 627.663102,103.447715 627.663102,104 C627.663102,104.552285 628.110817,105 628.663102,105 Z M637.663102,105 L638.663102,105 C639.215386,105 639.663102,104.552285 639.663102,104 C639.663102,103.447715 639.215386,103 638.663102,103 L637.663102,103 C637.110817,103 636.663102,103.447715 636.663102,104 C636.663102,104.552285 637.110817,105 637.663102,105 Z M646.663102,105 L647.663102,105 C648.215386,105 648.663102,104.552285 648.663102,104 C648.663102,103.447715 648.215386,103 647.663102,103 L646.663102,103 C646.110817,103 645.663102,103.447715 645.663102,104 C645.663102,104.552285 646.110817,105 646.663102,105 Z M655.663102,105 L656.663102,105 C657.215386,105 657.663102,104.552285 657.663102,104 C657.663102,103.447715 657.215386,103 656.663102,103 L655.663102,103 C655.110817,103 654.663102,103.447715 654.663102,104 C654.663102,104.552285 655.110817,105 655.663102,105 Z M664.663102,105 L665.663102,105 C666.215386,105 666.663102,104.552285 666.663102,104 C666.663102,103.447715 666.215386,103 665.663102,103 L664.663102,103 C664.110817,103 663.663102,103.447715 663.663102,104 C663.663102,104.552285 664.110817,105 664.663102,105 Z M673.663102,105 L674.663102,105 C675.215386,105 675.663102,104.552285 675.663102,104 C675.663102,103.447715 675.215386,103 674.663102,103 L673.663102,103 C673.110817,103 672.663102,103.447715 672.663102,104 C672.663102,104.552285 673.110817,105 673.663102,105 Z M682.663102,105 L683.663102,105 C684.215386,105 684.663102,104.552285 684.663102,104 C684.663102,103.447715 684.215386,103 683.663102,103 L682.663102,103 C682.110817,103 681.663102,103.447715 681.663102,104 C681.663102,104.552285 682.110817,105 682.663102,105 Z M691.663102,105 L692.663102,105 C693.215386,105 693.663102,104.552285 693.663102,104 C693.663102,103.447715 693.215386,103 692.663102,103 L691.663102,103 C691.110817,103 690.663102,103.447715 690.663102,104 C690.663102,104.552285 691.110817,105 691.663102,105 Z M700.663102,105 L701.663102,105 C702.215386,105 702.663102,104.552285 702.663102,104 C702.663102,103.447715 702.215386,103 701.663102,103 L700.663102,103 C700.110817,103 699.663102,103.447715 699.663102,104 C699.663102,104.552285 700.110817,105 700.663102,105 Z M709.663102,105 L710.663102,105 C711.215386,105 711.663102,104.552285 711.663102,104 C711.663102,103.447715 711.215386,103 710.663102,103 L709.663102,103 C709.110817,103 708.663102,103.447715 708.663102,104 C708.663102,104.552285 709.110817,105 709.663102,105 Z M718.663102,105 L719.663102,105 C720.215386,105 720.663102,104.552285 720.663102,104 C720.663102,103.447715 720.215386,103 719.663102,103 L718.663102,103 C718.110817,103 717.663102,103.447715 717.663102,104 C717.663102,104.552285 718.110817,105 718.663102,105 Z M727.663102,105 L728.663102,105 C729.215386,105 729.663102,104.552285 729.663102,104 C729.663102,103.447715 729.215386,103 728.663102,103 L727.663102,103 C727.110817,103 726.663102,103.447715 726.663102,104 C726.663102,104.552285 727.110817,105 727.663102,105 Z M736.663102,105 L737.663102,105 C738.215386,105 738.663102,104.552285 738.663102,104 C738.663102,103.447715 738.215386,103 737.663102,103 L736.663102,103 C736.110817,103 735.663102,103.447715 735.663102,104 C735.663102,104.552285 736.110817,105 736.663102,105 Z M745.663102,105 L746.663102,105 C747.215386,105 747.663102,104.552285 747.663102,104 C747.663102,103.447715 747.215386,103 746.663102,103 L745.663102,103 C745.110817,103 744.663102,103.447715 744.663102,104 C744.663102,104.552285 745.110817,105 745.663102,105 Z M754.663102,105 L755.663102,105 C756.215386,105 756.663102,104.552285 756.663102,104 C756.663102,103.447715 756.215386,103 755.663102,103 L754.663102,103 C754.110817,103 753.663102,103.447715 753.663102,104 C753.663102,104.552285 754.110817,105 754.663102,105 Z M763.663102,105 L764.663102,105 C765.215386,105 765.663102,104.552285 765.663102,104 C765.663102,103.447715 765.215386,103 764.663102,103 L763.663102,103 C763.110817,103 762.663102,103.447715 762.663102,104 C762.663102,104.552285 763.110817,105 763.663102,105 Z M772.663102,105 L773.663102,105 C774.215386,105 774.663102,104.552285 774.663102,104 C774.663102,103.447715 774.215386,103 773.663102,103 L772.663102,103 C772.110817,103 771.663102,103.447715 771.663102,104 C771.663102,104.552285 772.110817,105 772.663102,105 Z M781.663102,105 L782.663102,105 C783.215386,105 783.663102,104.552285 783.663102,104 C783.663102,103.447715 783.215386,103 782.663102,103 L781.663102,103 C781.110817,103 780.663102,103.447715 780.663102,104 C780.663102,104.552285 781.110817,105 781.663102,105 Z M790.663102,105 L791.663102,105 C792.215386,105 792.663102,104.552285 792.663102,104 C792.663102,103.447715 792.215386,103 791.663102,103 L790.663102,103 C790.110817,103 789.663102,103.447715 789.663102,104 C789.663102,104.552285 790.110817,105 790.663102,105 Z M799.663102,105 L800.663102,105 C801.215386,105 801.663102,104.552285 801.663102,104 C801.663102,103.447715 801.215386,103 800.663102,103 L799.663102,103 C799.110817,103 798.663102,103.447715 798.663102,104 C798.663102,104.552285 799.110817,105 799.663102,105 Z M808.663102,105 L809.663102,105 C810.215386,105 810.663102,104.552285 810.663102,104 C810.663102,103.447715 810.215386,103 809.663102,103 L808.663102,103 C808.110817,103 807.663102,103.447715 807.663102,104 C807.663102,104.552285 808.110817,105 808.663102,105 Z M817.663102,105 L818.663102,105 C819.215386,105 819.663102,104.552285 819.663102,104 C819.663102,103.447715 819.215386,103 818.663102,103 L817.663102,103 C817.110817,103 816.663102,103.447715 816.663102,104 C816.663102,104.552285 817.110817,105 817.663102,105 Z M826.663102,105 L827.663102,105 C828.215386,105 828.663102,104.552285 828.663102,104 C828.663102,103.447715 828.215386,103 827.663102,103 L826.663102,103 C826.110817,103 825.663102,103.447715 825.663102,104 C825.663102,104.552285 826.110817,105 826.663102,105 Z" id="Line"></path>
            </g>
        </g>
    </g>
</svg>